<svg width="53" height="59" viewBox="0 0 53 59" fill="none" xmlns="http://www.w3.org/2000/svg">
<path fill-rule="evenodd" clip-rule="evenodd" d="M20.1517 3.31839C16.6269 5.14734 13.73 6.69155 13.741 6.75726C13.741 6.92153 22.2115 11.1818 22.5089 11.1708C22.6411 11.1708 23.6324 10.7109 24.7119 10.1633L26.6725 9.16665L28.8094 10.2618L30.9463 11.357L34.4491 9.7909C39.7142 7.43626 40.265 7.17342 40.1769 7.09676C40.0667 6.97629 38.1721 5.96873 33.0392 3.28554C30.5608 1.99323 28.1596 0.711865 27.6969 0.459973C27.2343 0.19713 26.7937 0 26.7166 0C26.6395 0 23.6765 1.48944 20.1517 3.31839ZM4.67569 11.2913L0.996703 13.175V21.4546C0.996703 26.0105 1.04076 29.7341 1.10685 29.7341C1.16193 29.7341 2.96838 28.9565 5.12731 28.0037L9.03761 26.2733V17.5448L10.9432 18.5742C12.4192 19.3737 13.8842 20.1622 15.3602 20.9617L17.8716 22.3088L18.9841 21.805C19.6891 21.4874 20.383 21.1698 21.0769 20.8522C21.6167 20.6003 22.9385 20.0089 24.0179 19.538C25.0974 19.0671 26.0887 18.5852 26.2319 18.4757C26.4192 18.3333 24.1281 17.0738 17.7614 13.8212C12.9589 11.368 8.87239 9.37474 8.68513 9.38569C8.49788 9.39664 6.69143 10.2509 4.67569 11.2913ZM40.8267 11.817C38.3264 12.945 36.2776 13.9088 36.2776 13.9635C36.2776 14.0183 37.6434 14.8287 39.3067 15.7596C40.981 16.6905 42.3358 17.501 42.3358 17.5667C42.3358 17.6324 40.8598 18.3443 39.0533 19.1437C37.2469 19.9542 32.6867 22.0021 28.9086 23.6997L16.2744 29.3837C13.0911 30.8074 10.2272 32.0997 9.90779 32.2421C3.41999 35.1662 1.62455 35.9766 1.38223 36.119C1.1399 36.2614 1.08482 37.0718 1.04076 41.1568L0.985687 46.0304L4.26814 47.6951L7.5506 49.3597L12.1108 47.3117C14.6112 46.1837 16.671 45.209 16.671 45.1323C16.671 45.0557 16.2083 44.76 15.6466 44.4643C15.0848 44.1686 13.9172 43.5115 13.0471 43.0077C12.1879 42.5039 11.3287 42.0439 11.1415 41.9782C10.9542 41.9125 10.8 41.8139 10.8 41.7373C10.8 41.6716 12.8047 40.7188 15.2611 39.6345C20.0195 37.5208 23.6544 35.889 31.464 32.3735C34.9558 30.8074 38.4475 29.2303 41.9503 27.6642C45.0234 26.2843 48.5923 24.6744 49.881 24.083L52.2272 23.0097L52.2823 18.0814L52.3374 13.1531L49.0108 11.4665C47.1824 10.5356 45.6072 9.769 45.5301 9.769C45.442 9.769 43.3271 10.6999 40.8267 11.817ZM51.346 29.6027C50.8503 29.8436 49.881 30.2927 49.1871 30.5993C48.4931 30.906 47.1714 31.4974 46.2571 31.9135L44.5939 32.6692L44.5608 36.9952C44.5388 39.3717 44.4507 41.3102 44.3625 41.2992C44.1643 41.2664 41.047 39.6783 37.9078 38.0027C35.6387 36.798 35.4955 36.7433 34.9668 37.0061C34.6584 37.1594 32.8189 37.9808 30.8802 38.8241C28.9416 39.6783 27.2894 40.4231 27.2123 40.4997C27.1352 40.5654 31.0345 42.6682 35.892 45.1761L44.704 49.7321L48.4711 47.7936C50.5419 46.7313 52.3043 45.7566 52.3814 45.6361C52.5687 45.3623 52.5466 29.1318 52.3704 29.1537C52.2933 29.1646 51.8307 29.3618 51.346 29.6027ZM30.4837 48.6479C29.8338 48.9217 29.1729 49.2064 28.523 49.4911C26.5514 50.3344 26.9369 50.3673 24.5907 49.2064C23.0266 48.4288 22.3547 48.1988 22.0573 48.3084C21.837 48.396 19.9534 49.2393 17.8606 50.1811C15.7788 51.123 13.9943 51.9005 13.9062 51.9005C13.025 51.9005 14.49 52.7657 20.1076 55.5804L26.6946 58.8878L29.4703 57.5298C30.9904 56.785 34.0746 55.2846 36.2996 54.2004C38.5356 53.1162 40.3311 52.2072 40.298 52.1634C40.265 52.1305 38.3924 51.1777 36.1344 50.0387L32.0368 47.9798L30.4837 48.6479Z" fill="#46B2A3"/>
</svg>
