<svg width="59" height="59" viewBox="0 0 59 59" fill="none" xmlns="http://www.w3.org/2000/svg">
<path d="M13.928 27.8654C13.928 26.6094 14.9486 25.5776 16.1889 25.5776H20.0021C21.2445 25.5776 22.3082 26.6094 22.3082 27.9111V42.4499C22.7517 42.315 23.2836 42.18 23.9058 42.0451C24.7477 41.8209 25.37 41.059 25.37 40.16V22.1209C25.37 20.8648 26.3906 19.7873 27.676 19.7873H31.4893C32.7317 19.7873 33.7953 20.8191 33.7953 22.1209V38.8604C33.7953 38.8604 34.7276 38.4555 35.6578 38.0528C36.3684 37.7394 36.8119 37.0667 36.8119 36.257V16.2892C36.8119 15.0332 37.8325 13.9557 39.0749 13.9557H42.8882C44.1305 13.9557 45.1511 14.9875 45.1511 16.2892V32.7589C48.4326 30.3361 51.8044 27.4192 54.4657 23.9189C55.2646 22.8871 55.4863 21.5397 55.0428 20.2836C50.1637 6.104 34.8202 -1.43641 20.8053 3.50056C6.79028 8.43753 -0.659683 23.9624 4.21724 38.1442C4.74908 39.7594 5.45962 41.2854 6.30151 42.7656C6.96684 43.9323 8.20922 44.605 9.53988 44.47C10.2504 44.4243 11.1375 44.335 12.2443 44.2001C13.2196 44.1108 13.9302 43.2575 13.9302 42.2693L13.928 27.8654Z" fill="#46B2A3"/>
<path d="M13.5408 50.8321C25.7187 59.7457 42.7509 57.0306 51.6018 44.7697C54.9725 40.0637 56.8138 34.4074 56.8138 28.6171C56.8138 27.9828 56.768 27.3506 56.7243 26.7163C46.7956 41.6924 28.4152 48.7052 13.5408 50.8321Z" fill="#46B2A3"/>
</svg>
