<svg width="1680" height="377" viewBox="0 0 1680 377" fill="none" xmlns="http://www.w3.org/2000/svg">
<path opacity="0.05" d="M57.8281 122.762L101.888 78.7025H190.007V122.762H57.8281ZM57.8281 122.762V210.881H79.8579L123.917 166.821H190.007V122.762H234.066V299H190.007V210.881H145.947L101.888 254.94H57.8281V299H13.7686V78.7025H57.8281V122.762ZM349.83 78.7025H482.008V122.762H305.77L349.83 78.7025ZM526.068 210.881V254.94H459.979V299H327.8L261.711 232.911V78.7025H305.77V122.762V210.881L349.83 254.94H459.979L415.919 210.881H349.83V166.821H437.949L482.008 210.881H526.068ZM482.008 122.762H526.068V166.821H482.008V122.762ZM685.665 210.881H641.606L597.546 166.821H663.635H729.725V210.881H685.665ZM773.784 299H641.606L597.546 254.94H773.784V299ZM773.784 78.7025V122.762H597.546L641.606 78.7025H773.784ZM597.546 254.94V299H553.487V78.7025H597.546V122.762V166.821V254.94ZM977.392 78.7025H1021.73V299H977.392V254.94L845.488 122.762H801.429V78.7025H867.243L977.392 188.851V78.7025ZM801.429 299V166.821L845.488 122.762V299H801.429ZM1049.37 122.762V78.7025H1137.49V122.762L1181.55 78.7025H1269.67V122.762H1181.55V299H1137.49V122.762H1049.37Z" fill="url(#paint0_linear_40_468)"/>
<path opacity="0.05" d="M1391.83 122.762L1435.89 78.7025H1524.01V122.762H1391.83ZM1391.83 122.762V210.881H1413.86L1457.92 166.821H1524.01V122.762H1568.07V299H1524.01V210.881H1479.95L1435.89 254.94H1391.83V299H1347.77V78.7025H1391.83V122.762ZM1595.71 299V78.7025H1639.77V299H1595.71Z" fill="url(#paint1_linear_40_468)"/>
<defs>
<linearGradient id="paint0_linear_40_468" x1="644.911" y1="-1.51833e-06" x2="630.556" y2="376.675" gradientUnits="userSpaceOnUse">
<stop stop-color="#46B2A3"/>
<stop offset="1" stop-color="#09141A"/>
</linearGradient>
<linearGradient id="paint1_linear_40_468" x1="1494.73" y1="-1.51833e-06" x2="1438.36" y2="368.603" gradientUnits="userSpaceOnUse">
<stop stop-color="#46B2A3"/>
<stop offset="1" stop-color="#09141A"/>
</linearGradient>
</defs>
</svg>
